<svg width="75" height="75" viewBox="0 0 75 75" fill="none" xmlns="http://www.w3.org/2000/svg">
<path d="M55.9375 34.0625C45.9375 28.125 29.2188 27.5 19.6875 30.4688C18.125 30.9375 16.5625 30 16.0938 28.5937C15.625 27.0312 16.5625 25.4688 17.9688 25C29.0625 21.7188 47.3438 22.3438 58.9062 29.2188C60.3125 30 60.7813 31.875 60 33.2812C59.2188 34.375 57.3438 34.8437 55.9375 34.0625ZM55.625 42.8125C54.8437 43.9062 53.4375 44.375 52.3438 43.5938C43.9062 38.4375 31.0938 36.875 21.25 40C20 40.3125 18.5938 39.6875 18.2812 38.4375C17.9688 37.1875 18.5938 35.7813 19.8438 35.4688C31.25 32.0313 45.3125 33.75 55 39.6875C55.9375 40.1562 56.4062 41.7188 55.625 42.8125ZM51.875 51.4063C51.25 52.3438 50.1562 52.6562 49.2188 52.0312C41.875 47.5 32.6562 46.5625 21.7187 49.0625C20.625 49.375 19.6875 48.5938 19.375 47.6562C19.0625 46.5625 19.8438 45.625 20.7812 45.3125C32.6562 42.6562 42.9688 43.75 51.0938 48.75C52.1875 49.2188 52.3438 50.4688 51.875 51.4063ZM37.5 6.25C33.3962 6.25 29.3326 7.05831 25.5411 8.62876C21.7497 10.1992 18.3047 12.5011 15.4029 15.4029C9.5424 21.2634 6.25 29.212 6.25 37.5C6.25 45.788 9.5424 53.7366 15.4029 59.5971C18.3047 62.4989 21.7497 64.8008 25.5411 66.3712C29.3326 67.9417 33.3962 68.75 37.5 68.75C45.788 68.75 53.7366 65.4576 59.5971 59.5971C65.4576 53.7366 68.75 45.788 68.75 37.5C68.75 33.3962 67.9417 29.3326 66.3712 25.5411C64.8008 21.7497 62.4989 18.3047 59.5971 15.4029C56.6953 12.5011 53.2503 10.1992 49.4589 8.62876C45.6674 7.05831 41.6038 6.25 37.5 6.25Z" fill="#383637"/>
</svg>
